<svg width="465" height="506" viewBox="0 0 465 506" fill="none" xmlns="http://www.w3.org/2000/svg">
<path d="M373.124 490.053C370.034 489.833 367.544 489.753 365.084 489.443C363.784 489.273 362.394 488.922 361.324 488.222C360.304 487.562 358.914 486.273 359.004 485.403C359.134 484.193 360.274 482.532 361.384 482.102C363.814 481.162 366.494 480.802 369.084 480.342C370.334 480.122 371.644 480.202 373.354 480.122C373.354 477.742 373.154 475.592 373.414 473.492C373.674 471.382 374.034 469.153 374.974 467.293C376.514 464.243 379.724 464.212 381.014 467.342C382.124 470.032 382.324 473.113 382.784 476.043C382.984 477.293 382.814 478.593 382.814 480.323C384.634 480.323 386.104 480.182 387.544 480.352C389.514 480.592 391.614 480.723 393.354 481.543C394.844 482.243 396.714 483.683 396.974 485.073C397.414 487.403 395.114 488.413 393.114 488.803C389.884 489.443 386.604 489.803 383.024 490.323C382.934 491.343 382.844 492.453 382.754 493.563C382.604 495.553 382.614 497.563 382.274 499.513C381.684 502.983 380.084 504.943 378.074 505.033C375.934 505.123 374.214 502.983 373.604 499.253C373.364 497.783 373.384 496.273 373.304 494.783C373.224 493.323 373.174 491.853 373.094 490.053H373.124Z" fill="#E9DDB6"/>
<path d="M98.885 18.1471C96.2849 17.9877 94.1896 17.9298 92.1196 17.7053C91.0257 17.5821 89.8561 17.3285 88.9557 16.8215C88.0974 16.3434 86.9278 15.409 87.0035 14.7788C87.1129 13.9023 88.0722 12.6999 89.0062 12.3884C91.051 11.7075 93.3061 11.4467 95.4855 11.1135C96.5373 10.9541 97.6397 11.0121 99.0786 10.9542C99.0786 9.23017 98.9103 7.67279 99.1291 6.15163C99.3478 4.62323 99.6508 3.00794 100.442 1.66063C101.738 -0.548673 104.439 -0.570457 105.524 1.69679C106.458 3.64533 106.627 5.87641 107.014 7.99879C107.182 8.90424 107.039 9.84593 107.039 11.0991C108.57 11.0991 109.807 10.9976 111.019 11.1207C112.677 11.2946 114.444 11.3888 115.908 11.9828C117.162 12.4898 118.735 13.5329 118.954 14.5398C119.324 16.2276 117.389 16.9592 115.706 17.2417C112.988 17.7052 110.228 17.966 107.216 18.3427C107.14 19.0815 107.064 19.8856 106.988 20.6896C106.862 22.1311 106.871 23.587 106.584 24.9995C106.088 27.5131 104.742 28.9328 103.05 28.998C101.25 29.0632 99.8022 27.5131 99.2889 24.8112C99.087 23.7464 99.1038 22.6526 99.0365 21.5733C98.9692 20.5158 98.9271 19.451 98.8598 18.1471H98.885Z" fill="#E9DDB6"/>
<path d="M70.8063 485.871C68.086 487.345 65.9304 488.593 63.7141 489.683C62.5406 490.256 61.2227 490.765 60.0469 490.892C58.9287 491.017 57.2585 490.949 57.0092 490.367C56.6666 489.556 57.0174 487.942 57.8038 487.1C59.5258 485.257 61.6787 483.64 63.7173 482.008C64.7019 481.222 65.8503 480.589 67.2801 479.649C66.3878 478.187 65.4111 476.97 64.8458 475.544C64.2767 474.112 63.7481 472.554 63.8532 470.921C64.0245 468.245 66.7535 466.555 69.0281 467.806C70.9842 468.881 72.3096 470.67 73.8007 472.231C74.4401 472.895 74.7823 473.782 75.4308 474.845C76.9845 473.897 78.1869 473.046 79.48 472.4C81.2517 471.522 83.0932 470.508 84.886 470.106C86.4204 469.76 88.5566 469.671 89.2996 470.389C90.5487 471.592 88.9639 473.411 87.4028 474.692C84.8853 476.767 82.2202 478.697 79.359 480.881C79.6645 481.554 80.0038 482.283 80.3431 483.012C80.9611 484.313 81.7231 485.543 82.1639 486.919C82.9611 489.358 82.33 491.396 80.6479 492.498C78.8547 493.668 76.5842 493.249 74.6651 491.274C73.9091 490.496 73.3601 489.558 72.7333 488.684C72.1176 487.828 71.5238 486.951 70.7808 485.886L70.8063 485.871Z" fill="#E9DDB6"/>
<path d="M448.019 130.987C446.353 131.851 445.04 132.597 443.671 133.217C442.947 133.542 442.12 133.804 441.35 133.788C440.619 133.777 439.503 133.565 439.282 133.098C438.977 132.446 439.056 131.249 439.498 130.682C440.466 129.44 441.742 128.413 442.94 127.363C443.519 126.858 444.222 126.484 445.082 125.904C444.349 124.703 443.584 123.682 443.072 122.54C442.557 121.394 442.057 120.155 441.971 118.92C441.829 116.895 443.481 115.866 445.112 117.038C446.514 118.045 447.566 119.536 448.706 120.869C449.194 121.437 449.506 122.146 450.038 123.019C450.98 122.444 451.698 121.91 452.495 121.541C453.588 121.04 454.715 120.443 455.868 120.307C456.854 120.19 458.265 120.326 458.827 120.946C459.772 121.982 458.893 123.218 457.978 124.046C456.504 125.388 454.917 126.605 453.225 127.998C453.492 128.541 453.787 129.129 454.083 129.718C454.617 130.769 455.241 131.78 455.666 132.871C456.428 134.808 456.204 136.302 455.191 136.982C454.112 137.703 452.563 137.166 451.099 135.477C450.523 134.811 450.068 134.043 449.568 133.316C449.078 132.605 448.599 131.879 448.004 130.996L448.019 130.987Z" fill="#E9DDB6"/>
<path d="M345.917 378.749H118.233L48.1105 82.7407H8.50458C6.24903 82.7407 4.08585 81.5955 2.49093 79.5569C0.896016 77.5183 0 74.7534 0 71.8704C0 68.9874 0.896016 66.2224 2.49093 64.1839C4.08585 62.1453 6.24903 61 8.50458 61H60.7327L130.84 356.999H333.872L390.356 152.852C390.69 151.446 391.243 150.14 391.983 149.015C392.722 147.889 393.632 146.967 394.658 146.304C395.685 145.641 396.805 145.251 397.953 145.157C399.1 145.063 400.251 145.268 401.335 145.758C402.418 146.249 403.413 147.015 404.259 148.011C405.104 149.007 405.783 150.212 406.254 151.553C406.725 152.894 406.978 154.343 406.999 155.812C407.019 157.282 406.806 158.741 406.373 160.102L345.917 378.749Z" fill="url(#paint0_linear_1545_388)"/>
<path d="M366.066 164.637L321.011 331.195H145.648L107.058 164.637H366.066ZM378.211 153.58H95.4745L139.19 342.252H327.169L378.211 153.58Z" fill="url(#paint1_linear_1545_388)"/>
<path d="M313.138 418.099C313.138 422.031 314.05 425.875 315.759 429.144C317.469 432.414 319.898 434.962 322.74 436.467C325.582 437.972 328.71 438.365 331.727 437.598C334.744 436.831 337.516 434.938 339.691 432.157C341.867 429.377 343.348 425.834 343.948 421.977C344.548 418.121 344.24 414.123 343.063 410.49C341.886 406.858 339.892 403.752 337.334 401.568C334.776 399.383 331.769 398.217 328.692 398.217C324.567 398.217 320.611 400.312 317.694 404.04C314.777 407.769 313.138 412.826 313.138 418.099Z" fill="url(#paint2_linear_1545_388)"/>
<path d="M129.439 418.099C129.437 422.033 130.349 425.88 132.058 429.152C133.767 432.425 136.197 434.976 139.04 436.483C141.884 437.99 145.013 438.385 148.032 437.619C151.052 436.852 153.825 434.959 156.003 432.177C158.18 429.396 159.663 425.852 160.264 421.993C160.865 418.134 160.557 414.134 159.38 410.499C158.202 406.864 156.207 403.756 153.648 401.57C151.088 399.384 148.079 398.217 145.001 398.217C142.958 398.216 140.934 398.729 139.046 399.728C137.158 400.726 135.443 402.191 133.997 404.037C132.552 405.883 131.406 408.075 130.624 410.488C129.841 412.901 129.439 415.487 129.439 418.099Z" fill="url(#paint3_linear_1545_388)"/>
<path d="M398.376 135.764H95.4745C93.2622 135.679 91.1628 134.496 89.6215 132.466C88.0802 130.436 87.2181 127.718 87.2181 124.889C87.2181 122.06 88.0802 119.342 89.6215 117.312C91.1628 115.282 93.2622 114.099 95.4745 114.014H398.376C400.588 114.099 402.688 115.282 404.229 117.312C405.77 119.342 406.632 122.06 406.632 124.889C406.632 127.718 405.77 130.436 404.229 132.466C402.688 134.496 400.588 135.679 398.376 135.764Z" fill="url(#paint4_linear_1545_388)"/>
<path d="M159.494 260.769C161.412 263.858 163.81 266.407 166.536 268.255C170.065 270.583 173.693 272.659 177.403 274.472C181.436 276.604 184.615 278.443 186.939 279.991C189.152 281.435 191.132 283.401 192.773 285.785C194.347 288.141 195.183 291.158 195.12 294.255C195.12 299.6 193.086 304.68 189.017 309.494C184.48 314.66 179.189 318.628 173.447 321.171C167.375 324.082 160.946 325.591 154.46 325.627C148.37 325.627 143.403 324.315 139.56 321.692C135.717 319.069 132.92 315.891 131.171 312.159C129.543 308.925 128.638 305.183 128.554 301.338C128.511 299.737 128.775 298.146 129.323 296.705C129.498 296.182 129.787 295.736 130.156 295.418C130.525 295.1 130.957 294.925 131.401 294.914C131.401 296.941 132.233 299.105 133.887 301.427C135.542 303.748 138.367 305.736 142.354 307.398C146.34 309.061 151.589 309.887 158.124 309.887C163.295 309.949 168.457 309.29 173.516 307.92C178.134 306.608 181.757 304.794 184.384 302.479C187.011 300.164 188.332 297.58 188.348 294.728C188.364 293.718 188.167 292.721 187.777 291.843C187.387 290.965 186.818 290.238 186.131 289.74C183.456 287.874 180.665 286.292 177.788 285.008C171.97 282.155 167.406 279.719 164.096 277.699C157.292 273.541 152.326 269.203 149.196 264.684C146.066 260.165 144.501 254.283 144.501 247.036C144.501 236.339 147.633 225.351 153.898 214.07C160.027 202.942 167.718 193.362 176.58 185.817C185.436 178.275 193.263 174.501 200.062 174.494C203.788 174.475 207.453 175.706 210.69 178.065C213.852 180.282 216.556 183.428 218.579 187.244C220.457 190.598 221.495 194.6 221.558 198.724C221.558 204.194 219.657 210.909 215.855 218.871C212.197 226.609 207.625 233.577 202.301 239.53C197.068 245.353 192.483 248.265 188.548 248.265C187.516 248.338 186.491 248.031 185.592 247.38C185.269 247.148 185 246.812 184.812 246.404C184.624 245.996 184.524 245.532 184.522 245.058C187.386 245.058 190.964 242.386 195.259 237.041C199.676 231.485 203.449 225.151 206.465 218.232C209.636 211.05 211.224 205.02 211.229 200.141C211.284 198.915 211.14 197.689 210.805 196.539C210.469 195.389 209.951 194.341 209.282 193.461C207.981 191.857 205.996 191.051 203.309 191.051C197.665 191.051 191.134 194.261 183.714 200.682C176.337 207.036 169.868 214.962 164.589 224.114C159.263 233.296 156.6 241.704 156.6 249.338C156.496 253.462 157.519 257.504 159.494 260.769Z" fill="url(#paint5_linear_1545_388)"/>
<path d="M258.732 246.927C255.869 254.6 253.095 263.067 250.412 272.327C247.728 281.588 246.207 287.648 245.848 290.507C249.516 287.418 253.475 282.578 257.723 275.987C262.007 269.327 265.827 262.201 269.137 254.689C272.143 248.173 274.422 241.154 275.91 233.834C276.289 233.819 276.663 233.946 276.985 234.199C277.308 234.453 277.566 234.821 277.726 235.26C278.163 236.424 278.37 237.708 278.327 238.998C278.327 244.114 276.203 251.57 271.954 261.369C267.902 270.813 263.016 279.632 257.392 287.654C251.933 295.386 247.505 299.249 244.108 299.243C242.686 299.165 241.291 298.709 240.014 297.905C238.435 297.004 237.035 295.659 235.919 293.97C234.728 292.149 234.106 289.829 234.172 287.457C234.172 285.083 234.755 281.46 235.919 276.587C231.218 284.441 226.035 291.803 220.419 298.603C215.457 304.506 211.722 307.457 209.213 307.457C207.757 307.339 206.349 306.754 205.118 305.755C203.378 304.399 201.962 302.46 201.024 300.148C199.784 297.083 199.185 293.66 199.284 290.212C199.284 281.778 201.698 271.678 206.527 259.913C211.107 248.581 217.139 238.309 224.375 229.525C231.44 220.999 238.151 216.736 244.509 216.736C246.527 216.678 248.528 217.227 250.35 218.34C251.799 219.206 253.105 220.418 254.198 221.911C255.099 223.219 255.545 224.222 255.545 224.941C255.545 225.059 255.453 225.118 255.276 225.118C248.472 225.118 241.694 229.305 234.942 237.68C227.974 246.414 222.185 256.563 217.81 267.714C213.151 279.361 210.421 289.461 209.621 298.013C213.997 293.383 219.7 285.988 226.73 275.83C233.759 265.671 239.688 256.312 244.516 247.754C248.713 235.988 251.612 230.105 253.213 230.105C254.792 230.168 256.351 230.561 257.831 231.266C259.457 231.977 261.048 232.811 262.595 233.765C264.027 234.65 264.743 235.221 264.743 235.457C263.603 235.457 261.6 239.28 258.732 246.927Z" fill="url(#paint6_linear_1545_388)"/>
<path d="M281.752 281.26C286.565 273.477 290.893 265.225 294.697 256.578C298.545 247.842 301.052 240.267 302.217 233.853C302.594 233.84 302.966 233.968 303.287 234.221C303.609 234.475 303.865 234.843 304.025 235.279C304.469 236.441 304.678 237.726 304.633 239.018C304.633 244.605 302.217 252.954 297.383 264.064C292.774 274.784 287.308 284.865 281.075 294.147C275.041 303.059 270.276 307.516 266.782 307.516C263.919 307.516 261.751 306.506 260.279 304.486C258.8 302.459 258.003 299.77 258.062 297C258.062 291.058 260.702 278.968 265.982 260.729C271.262 242.49 276.942 224.934 283.022 208.059C289.107 191.185 292.732 182.748 293.897 182.748C295.522 182.814 297.129 183.202 298.661 183.899C300.362 184.609 302.021 185.473 303.625 186.486C304.412 186.905 305.156 187.443 305.842 188.089C304.846 188.089 301.647 195.546 296.244 210.46C290.841 225.373 285.315 241.792 279.666 259.716C274.022 277.659 270.356 290.553 268.668 298.396C272.603 294.698 276.965 288.985 281.752 281.26Z" fill="url(#paint7_linear_1545_388)"/>
<path d="M316.647 287.497C324.904 280.058 332.35 271.248 338.79 261.3C345.46 251.076 349.509 241.927 350.935 233.854C352.541 233.854 353.344 235.752 353.344 239.55C353.344 247.164 350.081 256.375 343.554 267.183C337.051 277.956 329.365 287.472 320.734 295.436C312.058 303.457 304.9 307.467 299.261 307.467C293.443 307.467 288.992 305.828 285.908 302.549C282.824 299.269 281.285 294.488 281.29 288.206C281.29 279.883 283.637 269.99 288.332 258.526C292.779 247.481 298.655 237.477 305.711 228.935C312.602 220.685 319.177 216.556 325.437 216.55C327.004 216.466 328.567 216.803 330.025 217.54C331.484 218.277 332.805 219.398 333.903 220.829C335.361 221.933 336.548 223.539 337.328 225.462C338.329 227.939 338.814 230.704 338.736 233.49C338.736 239.071 337.197 244.921 334.118 251.04C331.124 257.037 327.279 262.265 322.782 266.455C318.302 270.613 314.141 272.695 310.298 272.702C308.228 272.675 306.179 272.158 304.256 271.177C302.49 270.46 300.972 268.982 299.962 266.996C298.134 271.67 296.608 276.526 295.398 281.516C294.46 285.118 293.919 288.869 293.789 292.662C293.73 294.11 293.964 295.553 294.466 296.853C294.654 297.323 294.942 297.716 295.298 297.984C295.654 298.253 296.062 298.386 296.475 298.368C301.827 298.374 308.551 294.751 316.647 287.497ZM312.884 256.932C316.888 253.284 320.305 248.685 322.951 243.386C325.589 238.452 327.311 232.813 327.984 226.899C323.151 229.279 318.477 233.677 313.961 240.091C309.271 246.81 305.237 254.232 301.947 262.195C305.375 262.195 309.02 260.441 312.884 256.932Z" fill="url(#paint8_linear_1545_388)"/>
<defs>
<linearGradient id="paint0_linear_1545_388" x1="2.13962" y1="-15.2991" x2="562.5" y2="353.979" gradientUnits="userSpaceOnUse">
<stop stop-color="#B19264"/>
<stop offset="0.51" stop-color="#F4ECC6"/>
<stop offset="1" stop-color="#B19264"/>
</linearGradient>
<linearGradient id="paint1_linear_1545_388" x1="7.15777" y1="-22.9134" x2="567.514" y2="346.375" gradientUnits="userSpaceOnUse">
<stop stop-color="#B19264"/>
<stop offset="0.51" stop-color="#F4ECC6"/>
<stop offset="1" stop-color="#B19264"/>
</linearGradient>
<linearGradient id="paint2_linear_1545_388" x1="-29.3851" y1="32.5403" x2="530.971" y2="401.829" gradientUnits="userSpaceOnUse">
<stop stop-color="#B19264"/>
<stop offset="0.51" stop-color="#F4ECC6"/>
<stop offset="1" stop-color="#B19264"/>
</linearGradient>
<linearGradient id="paint3_linear_1545_388" x1="-105.626" y1="148.229" x2="454.73" y2="517.517" gradientUnits="userSpaceOnUse">
<stop stop-color="#B19264"/>
<stop offset="0.51" stop-color="#F4ECC6"/>
<stop offset="1" stop-color="#B19264"/>
</linearGradient>
<linearGradient id="paint4_linear_1545_388" x1="49.6806" y1="-87.4373" x2="610.037" y2="281.851" gradientUnits="userSpaceOnUse">
<stop stop-color="#B19264"/>
<stop offset="0.51" stop-color="#F4ECC6"/>
<stop offset="1" stop-color="#B19264"/>
</linearGradient>
<linearGradient id="paint5_linear_1545_388" x1="-28.3461" y1="30.9564" x2="532.01" y2="400.245" gradientUnits="userSpaceOnUse">
<stop stop-color="#B19264"/>
<stop offset="0.51" stop-color="#F4ECC6"/>
<stop offset="1" stop-color="#B19264"/>
</linearGradient>
<linearGradient id="paint6_linear_1545_388" x1="-8.72018" y1="1.17822" x2="551.636" y2="370.467" gradientUnits="userSpaceOnUse">
<stop stop-color="#B19264"/>
<stop offset="0.51" stop-color="#F4ECC6"/>
<stop offset="1" stop-color="#B19264"/>
</linearGradient>
<linearGradient id="paint7_linear_1545_388" x1="17.9019" y1="-39.2145" x2="578.256" y2="330.065" gradientUnits="userSpaceOnUse">
<stop stop-color="#B19264"/>
<stop offset="0.51" stop-color="#F4ECC6"/>
<stop offset="1" stop-color="#B19264"/>
</linearGradient>
<linearGradient id="paint8_linear_1545_388" x1="24.2746" y1="-48.8937" x2="584.638" y2="320.393" gradientUnits="userSpaceOnUse">
<stop stop-color="#B19264"/>
<stop offset="0.51" stop-color="#F4ECC6"/>
<stop offset="1" stop-color="#B19264"/>
</linearGradient>
</defs>
</svg>
